<svg width="16" height="16" viewBox="0 0 16 16" fill="none" xmlns="http://www.w3.org/2000/svg">
<path d="M11.3333 10.667L14 8.00033M14 8.00033L11.3333 5.33366M14 8.00033H4.66667M8.66667 10.667V11.3337C8.66667 11.8641 8.45595 12.3728 8.08088 12.7479C7.70581 13.1229 7.1971 13.3337 6.66667 13.3337H4C3.46957 13.3337 2.96086 13.1229 2.58579 12.7479C2.21071 12.3728 2 11.8641 2 11.3337V4.66699C2 4.13656 2.21071 3.62785 2.58579 3.25278C2.96086 2.87771 3.46957 2.66699 4 2.66699H6.66667C7.1971 2.66699 7.70581 2.87771 8.08088 3.25278C8.45595 3.62785 8.66667 4.13656 8.66667 4.66699V5.33366" stroke="#FF4842" stroke-linecap="round" stroke-linejoin="round"/>
</svg>
