<svg width="16" height="16" viewBox="0 0 16 16" fill="none" xmlns="http://www.w3.org/2000/svg">
<path d="M9.33317 11.3337H13.3332M11.3332 13.3337V9.33366M3.73317 2.66699H5.59984C5.73991 2.66699 5.87862 2.69458 6.00803 2.74819C6.13745 2.80179 6.25504 2.88036 6.35408 2.97941C6.45313 3.07846 6.5317 3.19605 6.58531 3.32546C6.63891 3.45488 6.6665 3.59358 6.6665 3.73366V5.60033C6.6665 5.7404 6.63891 5.87911 6.58531 6.00852C6.5317 6.13794 6.45313 6.25552 6.35408 6.35457C6.25504 6.45362 6.13745 6.53219 6.00803 6.5858C5.87862 6.6394 5.73991 6.66699 5.59984 6.66699H3.73317C3.45027 6.66699 3.17896 6.55461 2.97892 6.35457C2.77888 6.15453 2.6665 5.88322 2.6665 5.60033V3.73366C2.6665 3.45076 2.77888 3.17945 2.97892 2.97941C3.17896 2.77937 3.45027 2.66699 3.73317 2.66699ZM3.73317 9.33366H5.59984C5.88273 9.33366 6.15405 9.44604 6.35408 9.64608C6.55412 9.84612 6.6665 10.1174 6.6665 10.4003V12.267C6.6665 12.5499 6.55412 12.8212 6.35408 13.0212C6.15405 13.2213 5.88273 13.3337 5.59984 13.3337H3.73317C3.45027 13.3337 3.17896 13.2213 2.97892 13.0212C2.77888 12.8212 2.6665 12.5499 2.6665 12.267V10.4003C2.6665 10.1174 2.77888 9.84612 2.97892 9.64608C3.17896 9.44604 3.45027 9.33366 3.73317 9.33366ZM10.3998 2.66699H12.2665C12.5494 2.66699 12.8207 2.77937 13.0208 2.97941C13.2208 3.17945 13.3332 3.45076 13.3332 3.73366V5.60033C13.3332 5.88322 13.2208 6.15453 13.0208 6.35457C12.8207 6.55461 12.5494 6.66699 12.2665 6.66699H10.3998C10.1169 6.66699 9.84563 6.55461 9.64559 6.35457C9.44555 6.15453 9.33317 5.88322 9.33317 5.60033V3.73366C9.33317 3.45076 9.44555 3.17945 9.64559 2.97941C9.84563 2.77937 10.1169 2.66699 10.3998 2.66699Z" stroke="#C4CDD5" stroke-miterlimit="10" stroke-linecap="round" stroke-linejoin="round"/>
</svg>
