<svg width="16" height="16" viewBox="0 0 16 16" fill="none" xmlns="http://www.w3.org/2000/svg">
<path d="M9.99984 12.667C10.7998 10.215 11.6838 9.33033 13.9998 8.66699C11.6838 8.00366 10.7998 7.11899 9.99984 4.66699C9.19984 7.11899 8.31584 8.00366 5.99984 8.66699C8.31584 9.33033 9.19984 10.215 9.99984 12.667ZM4.6665 6.66699C5.0665 5.44033 5.5085 4.99833 6.6665 4.66699C5.5085 4.33566 5.0665 3.89366 4.6665 2.66699C4.2665 3.89366 3.8245 4.33566 2.6665 4.66699C3.8245 4.99833 4.2665 5.44033 4.6665 6.66699ZM5.6665 13.3337C5.8665 12.7203 6.08717 12.4997 6.6665 12.3337C6.08717 12.1677 5.8665 11.947 5.6665 11.3337C5.4665 11.947 5.24584 12.1677 4.6665 12.3337C5.24584 12.4997 5.4665 12.7203 5.6665 13.3337Z" stroke="#C4CDD5" stroke-linejoin="round"/>
</svg>
